<svg version="1.1" viewBox="0.0 0.0 336.0 384.0" fill="none" stroke="none" stroke-linecap="square" stroke-miterlimit="10" xmlns:xlink="http://www.w3.org/1999/xlink" xmlns="http://www.w3.org/2000/svg"><clipPath id="g247e6e7d594_0_85.0"><path d="m0 0l336.0 0l0 384.0l-336.0 0l0 -384.0z" clip-rule="nonzero"/></clipPath><g clip-path="url(#g247e6e7d594_0_85.0)"><path fill="#000000" fill-opacity="0.0" d="m0 0l336.0 0l0 384.0l-336.0 0z" fill-rule="evenodd"/><path fill="#374151" d="m192.0 95.986786l48.0 0l0 288.0l-48.0 0z" fill-rule="evenodd"/><path stroke="#374151" stroke-width="1.0" stroke-linejoin="round" stroke-linecap="butt" d="m192.0 95.986786l48.0 0l0 288.0l-48.0 0z" fill-rule="evenodd"/><path fill="#374151" d="m240.0 95.986786l48.0 0l0 48.0l-48.0 0z" fill-rule="evenodd"/><path stroke="#374151" stroke-width="1.0" stroke-linejoin="round" stroke-linecap="butt" d="m240.0 95.986786l48.0 0l0 48.0l-48.0 0z" fill-rule="evenodd"/><path fill="#374151" d="m96.0 95.986786l48.0 0l0 240.0l-48.0 0z" fill-rule="evenodd"/><path stroke="#374151" stroke-width="1.0" stroke-linejoin="round" stroke-linecap="butt" d="m96.0 95.986786l48.0 0l0 240.0l-48.0 0z" fill-rule="evenodd"/><path fill="#374151" d="m48.0 95.986786l48.0 0l0 48.0l-48.0 0z" fill-rule="evenodd"/><path stroke="#374151" stroke-width="1.0" stroke-linejoin="round" stroke-linecap="butt" d="m48.0 95.986786l48.0 0l0 48.0l-48.0 0z" fill-rule="evenodd"/><path fill="#374151" d="m48.0 143.98679l0 -48.0l-48.0 48.0z" fill-rule="evenodd"/><path stroke="#374151" stroke-width="1.0" stroke-linejoin="round" stroke-linecap="butt" d="m48.0 143.98679l0 -48.0l-48.0 48.0z" fill-rule="evenodd"/><path fill="#374151" d="m0 143.98679l48.0 0l0 48.0l-48.0 0z" fill-rule="evenodd"/><path stroke="#374151" stroke-width="1.0" stroke-linejoin="round" stroke-linecap="butt" d="m0 143.98679l48.0 0l0 48.0l-48.0 0z" fill-rule="evenodd"/><path fill="#374151" d="m48.0 191.98679l0 48.0l-48.0 -48.0z" fill-rule="evenodd"/><path stroke="#374151" stroke-width="1.0" stroke-linejoin="round" stroke-linecap="butt" d="m48.0 191.98679l0 48.0l-48.0 -48.0z" fill-rule="evenodd"/><path fill="#374151" d="m48.0 287.9868l-48.0 0l48.0 -48.0z" fill-rule="evenodd"/><path stroke="#374151" stroke-width="1.0" stroke-linejoin="round" stroke-linecap="butt" d="m48.0 287.9868l-48.0 0l48.0 -48.0z" fill-rule="evenodd"/><path fill="#374151" d="m48.0 191.98679l48.0 0l0 48.0l-48.0 0z" fill-rule="evenodd"/><path stroke="#374151" stroke-width="1.0" stroke-linejoin="round" stroke-linecap="butt" d="m48.0 191.98679l48.0 0l0 48.0l-48.0 0z" fill-rule="evenodd"/><path fill="#374151" d="m48.0 239.98679l48.0 0l0 48.0l-48.0 0z" fill-rule="evenodd"/><path stroke="#374151" stroke-width="1.0" stroke-linejoin="round" stroke-linecap="butt" d="m48.0 239.98679l48.0 0l0 48.0l-48.0 0z" fill-rule="evenodd"/><path fill="#374151" d="m0 287.9868l48.0 0l0 48.0l-48.0 0z" fill-rule="evenodd"/><path stroke="#374151" stroke-width="1.0" stroke-linejoin="round" stroke-linecap="butt" d="m0 287.9868l48.0 0l0 48.0l-48.0 0z" fill-rule="evenodd"/><path fill="#374151" d="m0 335.9868l48.0 0l0 48.0l-48.0 0z" fill-rule="evenodd"/><path stroke="#374151" stroke-width="1.0" stroke-linejoin="round" stroke-linecap="butt" d="m0 335.9868l48.0 0l0 48.0l-48.0 0z" fill-rule="evenodd"/><path fill="#374151" d="m288.0 143.98679l48.0 0l-48.0 -48.0z" fill-rule="evenodd"/><path stroke="#374151" stroke-width="1.0" stroke-linejoin="round" stroke-linecap="butt" d="m288.0 143.98679l48.0 0l-48.0 -48.0z" fill-rule="evenodd"/><path fill="#374151" d="m288.0 143.98679l48.0 0l0 48.0l-48.0 0z" fill-rule="evenodd"/><path stroke="#374151" stroke-width="1.0" stroke-linejoin="round" stroke-linecap="butt" d="m288.0 143.98679l48.0 0l0 48.0l-48.0 0z" fill-rule="evenodd"/><path fill="#374151" d="m288.0 191.98679l48.0 0l-48.0 48.0z" fill-rule="evenodd"/><path stroke="#374151" stroke-width="1.0" stroke-linejoin="round" stroke-linecap="butt" d="m288.0 191.98679l48.0 0l-48.0 48.0z" fill-rule="evenodd"/><path fill="#374151" d="m288.0 287.9868l0 -48.0l48.0 48.0z" fill-rule="evenodd"/><path stroke="#374151" stroke-width="1.0" stroke-linejoin="round" stroke-linecap="butt" d="m288.0 287.9868l0 -48.0l48.0 48.0z" fill-rule="evenodd"/><path fill="#374151" d="m240.0 191.98679l48.0 0l0 48.0l-48.0 0z" fill-rule="evenodd"/><path stroke="#374151" stroke-width="1.0" stroke-linejoin="round" stroke-linecap="butt" d="m240.0 191.98679l48.0 0l0 48.0l-48.0 0z" fill-rule="evenodd"/><path fill="#374151" d="m240.0 239.98679l48.0 0l0 48.0l-48.0 0z" fill-rule="evenodd"/><path stroke="#374151" stroke-width="1.0" stroke-linejoin="round" stroke-linecap="butt" d="m240.0 239.98679l48.0 0l0 48.0l-48.0 0z" fill-rule="evenodd"/><path fill="#374151" d="m288.0 287.9868l48.0 0l0 48.0l-48.0 0z" fill-rule="evenodd"/><path stroke="#374151" stroke-width="1.0" stroke-linejoin="round" stroke-linecap="butt" d="m288.0 287.9868l48.0 0l0 48.0l-48.0 0z" fill-rule="evenodd"/><path fill="#374151" d="m288.0 335.9868l48.0 0l-48.0 48.0z" fill-rule="evenodd"/><path stroke="#374151" stroke-width="1.0" stroke-linejoin="round" stroke-linecap="butt" d="m288.0 335.9868l48.0 0l-48.0 48.0z" fill-rule="evenodd"/><path fill="#374151" d="m240.0 335.9868l48.0 0l0 48.0l-48.0 0z" fill-rule="evenodd"/><path stroke="#374151" stroke-width="1.0" stroke-linejoin="round" stroke-linecap="butt" d="m240.0 335.9868l48.0 0l0 48.0l-48.0 0z" fill-rule="evenodd"/><path fill="#93c47d" d="m48.0 143.98679l48.0 0l0 48.0l-48.0 0z" fill-rule="evenodd"/><path fill="#93c47d" d="m240.0 143.98679l48.0 0l0 48.0l-48.0 0z" fill-rule="evenodd"/><path fill="#93c47d" d="m240.0 287.9868l48.0 0l0 48.0l-48.0 0z" fill-rule="evenodd"/><path fill="#93c47d" d="m144.0 -0.013212599l48.0 0l0 48.0l-48.0 0z" fill-rule="evenodd"/></g></svg>